<svg id="svgQrWrapper" viewBox="0 0 300 300" xmlns="http://www.w3.org/2000/svg" xmlns:xlink="http://www.w3.org/1999/xlink" width="300" height="300" style="width: 100%; height: 100%; background-color: rgb(255, 255, 255);"><svg xmlns="http://www.w3.org/2000/svg" viewBox="0 0 2000 2000" width="300" height="300" fill="none"><g><defs><style>.cls-5fat1{fill:#5b2516}.cls-5fat2{fill:#602515}.cls-5fat3{fill:#0f422c}.cls-5fat4{fill:#124c31}.cls-5fat5{fill:#723824}.cls-5fat6{fill:#071c12}.cls-5fat7{fill:#0a3320}</style></defs><path d="M1749.88 1842.79h-29.52v-23.04h6.48v-6.48h23.04v29.52zM1685.22 1842.79h-35.14v-23.04h35.14v23.04Zm-70.28 0h-35.14v-23.04h35.14v23.04Zm-70.28 0h-35.14v-23.04h35.14v23.04Zm-70.28 0h-35.14v-23.04h35.14v23.04Zm-70.28 0h-35.14v-23.04h35.14v23.04Zm-70.28 0h-35.14v-23.04h35.14v23.04Zm-70.28 0h-35.14v-23.04h35.14v23.04Zm-70.28 0h-35.14v-23.04h35.14v23.04Zm-70.28 0h-35.14v-23.04h35.14v23.04Zm-70.28 0h-35.14v-23.04h35.14v23.04Zm-70.28 0h-35.14v-23.04h35.14v23.04Zm-70.28 0H877v-23.04h35.14v23.04Zm-70.28 0h-35.14v-23.04h35.14v23.04Zm-70.28 0h-35.14v-23.04h35.14v23.04Zm-70.28 0h-35.14v-23.04h35.14v23.04Zm-70.28 0h-35.14v-23.04h35.14v23.04Zm-70.28 0H525.6v-23.04h35.14v23.04Zm-70.28 0h-35.14v-23.04h35.14v23.04Zm-70.28 0h-35.14v-23.04h35.14v23.04Zm-70.28 0h-35.14v-23.04h35.14v23.04ZM279.64 1842.79h-29.52v-29.52h23.04v6.48h6.48v23.04zM273.16 1778.13h-23.04v-35.14h23.04v35.14Zm0-70.28h-23.04v-35.14h23.04v35.14Zm0-70.28h-23.04v-35.14h23.04v35.14Zm0-70.28h-23.04v-35.14h23.04v35.14Zm0-70.28h-23.04v-35.14h23.04v35.14Zm0-70.28h-23.04v-35.14h23.04v35.14Zm0-70.28h-23.04v-35.14h23.04v35.14Zm0-70.28h-23.04v-35.14h23.04v35.14Zm0-70.28h-23.04v-35.14h23.04v35.14Zm0-70.28h-23.04v-35.14h23.04v35.14Zm0-70.28h-23.04v-35.14h23.04v35.14Zm0-70.28h-23.04v-35.14h23.04v35.14Zm0-70.28h-23.04v-35.14h23.04v35.14Zm0-70.28h-23.04v-35.14h23.04v35.14Zm0-70.28h-23.04v-35.14h23.04v35.14Zm0-70.28h-23.04v-35.14h23.04v35.14Zm0-70.28h-23.04v-35.14h23.04v35.14Zm0-70.28h-23.04v-35.14h23.04v35.14Zm0-70.28h-23.04v-35.14h23.04v35.14Zm0-70.28h-23.04v-35.14h23.04v35.14ZM273.16 372.54h-23.04v-29.52h29.52v23.04h-6.48v6.48zM1685.22 366.06h-35.14v-23.04h35.14v23.04Zm-70.28 0h-35.14v-23.04h35.14v23.04Zm-70.28 0h-35.14v-23.04h35.14v23.04Zm-70.28 0h-35.14v-23.04h35.14v23.04Zm-70.28 0h-35.14v-23.04h35.14v23.04Zm-70.28 0h-35.14v-23.04h35.14v23.04Zm-70.28 0h-35.14v-23.04h35.14v23.04Zm-70.28 0h-35.14v-23.04h35.14v23.04Zm-70.28 0h-35.14v-23.04h35.14v23.04Zm-70.28 0h-35.14v-23.04h35.14v23.04Zm-70.28 0h-35.14v-23.04h35.14v23.04Zm-70.28 0H877v-23.04h35.14v23.04Zm-70.28 0h-35.14v-23.04h35.14v23.04Zm-70.28 0h-35.14v-23.04h35.14v23.04Zm-70.28 0h-35.14v-23.04h35.14v23.04Zm-70.28 0h-35.14v-23.04h35.14v23.04Zm-70.28 0H525.6v-23.04h35.14v23.04Zm-70.28 0h-35.14v-23.04h35.14v23.04Zm-70.28 0h-35.14v-23.04h35.14v23.04Zm-70.28 0h-35.14v-23.04h35.14v23.04ZM1749.88 372.54h-23.04v-6.48h-6.48v-23.04h29.52v29.52zM1749.88 1778.13h-23.04v-35.14h23.04v35.14Zm0-70.28h-23.04v-35.14h23.04v35.14Zm0-70.28h-23.04v-35.14h23.04v35.14Zm0-70.28h-23.04v-35.14h23.04v35.14Zm0-70.28h-23.04v-35.14h23.04v35.14Zm0-70.28h-23.04v-35.14h23.04v35.14Zm0-70.28h-23.04v-35.14h23.04v35.14Zm0-70.28h-23.04v-35.14h23.04v35.14Zm0-70.28h-23.04v-35.14h23.04v35.14Zm0-70.28h-23.04v-35.14h23.04v35.14Zm0-70.28h-23.04v-35.14h23.04v35.14Zm0-70.28h-23.04v-35.14h23.04v35.14Zm0-70.28h-23.04v-35.14h23.04v35.14Zm0-70.28h-23.04v-35.14h23.04v35.14Zm0-70.28h-23.04v-35.14h23.04v35.14Zm0-70.28h-23.04v-35.14h23.04v35.14Zm0-70.28h-23.04v-35.14h23.04v35.14Zm0-70.28h-23.04v-35.14h23.04v35.14Zm0-70.28h-23.04v-35.14h23.04v35.14Zm0-70.28h-23.04v-35.14h23.04v35.14Z" class="cls-5fat6"/><path d="M1281.96 371.46H718.04l3.76-12.35.93-3.04 14.28-46.82 4.84-15.88 49.21-161.3c11.6-38.04 56.68-64.03 106.27-60.79 13.06.86 24.39 2.55 34.06 4.52 32.17 6.55 40.83 15.04 71.42 16.26 39.9 1.6 54.72-11.64 97.75-17.72.22-.04.45-.06.68-.1 53.57-7.44 105.01 19.88 116.43 61.71 14.31 52.42 28.62 104.83 42.92 157.25l4.38 16.05c4.25 15.56 8.49 31.13 12.75 46.69l.87 3.17c1.12 4.12 2.25 8.24 3.37 12.35Z" class="cls-5fat3"/><path d="M1281.96 371.46c-1.12-4.11-2.25-8.23-3.37-12.35l-.87-3.17c-4.25-15.55-8.49-31.12-12.75-46.69l-4.38-16.05c-14.3-52.42-28.61-104.83-42.92-157.25-11.41-41.83-62.86-69.14-116.43-61.71-.23.04-.46.06-.68.1-43.03 6.08-57.85 19.33-97.75 17.72-30.59-1.22-39.25-9.71-71.42-16.26-9.67-1.97-21-3.66-34.06-4.52-37.09-2.43-71.65 11.5-91.57 34.6 34.85-13.85 82.56-25.54 127.4-7.15 32.95 13.52 34.97 32.36 67.67 42.29 55.72 16.93 87.88-25.42 121.24-8.46 35.6 18.1 51.62 93.1 25.38 140.98-46.56 84.95-217.23 68.26-217.11 78.01.08 6.61 78.55 13.83 351.61 19.89Z" class="cls-5fat7"/><path d="M1442.56 326.61c-43.3 130.2-274.42 199.49-458.66 197.37-15.9-.18-334.45-7.4-419.18-182.33-8.44-17.42-19.32-40.67-9.4-58.27 31.12-55.21 207.79 49.91 449.26 46.99 234.37-2.83 406.72-105.94 439.53-50.1 8.68 14.76 2.97 32.75-1.55 46.34Z" class="cls-5fat3"/><path d="M1444.11 280.26c-24.03-40.88-122.85 3.44-266.04 31.23 80.85 28.94 98.76 52.36 98.52 69.1-.78 54.33-193.89 106.11-355.65 107.27-103.02.74-187.83-19.09-245.33-37.09 125.33 69.24 296.73 73.08 308.29 73.22 184.24 2.12 415.35-67.17 458.66-197.37 4.52-13.59 10.23-31.58 1.55-46.34Z" class="cls-5fat7"/><path d="M1277.73 355.94c-19.12 5.32-40.34 10.63-63.46 15.52-58.86 12.44-130.17 22.17-211.17 22.41-83.64.25-157.1-9.66-217.37-22.41a1023.08 1023.08 0 0 1-62.98-15.39l14.28-46.82 4.84-15.88a1313.724 1313.724 0 0 0 258.42 25.78c101.66.04 189.84-11.73 260.32-25.95l4.38 16.05c4.25 15.56 8.49 31.13 12.75 46.69Z" class="cls-5fat6"/><ellipse cx="830.25" cy="204.01" class="cls-5fat4" rx="80.83" ry="33.37" transform="rotate(-74.77 830.271 203.998)"/><path d="M698.2 426.76c-5.39 7.96-48.85-4.11-78.01-33.84-30.95-31.55-41.41-78.54-32.99-83.61 5.51-3.32 23.76 15.95 60.24 54.47 36.3 38.33 54.46 57.5 50.75 62.97Z" class="cls-5fat4"/><path d="M1044.78 1736.66c78.35-38.84 164.26 77.93 258.85 41.27 27.68-10.73 59.47-37.49 62.47-72.02 2.8-32.31-20.81-57.64-28.01-64.84 7.4 2.08 30.26 9.5 47.38 32.35 19.2 25.63 18.02 53.1 17.5 60.18 2.9-3.87 8.41-12.34 9.82-24.43 1.97-16.87-5.35-29.47-7.77-33.26 5.04 5.36 17.85 20.39 21.08 43.66 4.2 30.26-10.82 52.54-14.41 57.57 5.12-3.9 12.62-10.78 18.13-21.49 2.29-4.45 3.78-8.67 4.76-12.32.08 8.47-.53 20.25-3.68 33.79-21.27 91.5-128.13 132.56-139.08 136.59-122.78 45.22-286.37-17.48-297.15-90.48-4.62-31.26 17.79-70.55 50.1-86.57Z" class="cls-5fat5"/><path d="M1434.59 1743.33c-.98 3.66-2.47 7.87-4.76 12.32-5.51 10.7-13.01 17.58-18.13 21.48 3.58-5.03 18.61-27.31 14.41-57.57-3.23-23.27-16.04-38.3-21.08-43.66 2.41 3.8 9.74 16.39 7.77 33.26-1.41 12.09-6.92 20.56-9.82 24.43.52-7.07 1.7-34.54-17.5-60.18-11.57-15.44-25.76-23.84-36.03-28.3 7.7 8.2 19.29 22.75 26.19 43.74 16.34 49.71-7.71 92.72-11.81 99.78-23.85 41.08-63.04 54.69-72.84 57.78 12-.59 32.43-3.22 54.37-14.83 14.58-7.71 25.13-16.9 32.13-24.1-5.79 11.08-15.24 26.24-30.28 40.78-74.2 71.73-223.53 69.21-305.23-4.94-20.21-18.35-33.53-38.57-42.42-55.9-4.65 11.99-6.56 24.42-4.88 35.79 10.79 73 174.37 135.7 297.16 90.48 10.94-4.03 117.81-45.1 139.08-136.59 3.15-13.54 3.76-25.32 3.68-33.79Z" class="cls-5fat2"/><path d="M1219.32 1781.18c-3.37 2.57-6.71 5.12-9.97 7.68 3.59-2.34 6.9-4.91 9.97-7.68Z" class="cls-5fat1"/><path d="M955.22 1736.66c-78.35-38.84-164.26 77.93-258.85 41.27-27.68-10.73-59.47-37.49-62.47-72.02-2.8-32.31 20.81-57.64 28.01-64.84-7.4 2.08-30.26 9.5-47.38 32.35-19.2 25.63-18.02 53.1-17.5 60.18-2.9-3.87-8.41-12.34-9.82-24.43-1.97-16.87 5.35-29.47 7.77-33.26-5.04 5.36-17.85 20.39-21.08 43.66-4.2 30.26 10.82 52.54 14.41 57.57-5.12-3.9-12.62-10.78-18.13-21.49a62.158 62.158 0 0 1-4.76-12.32c-.08 8.47.53 20.25 3.68 33.79 21.27 91.5 128.13 132.56 139.08 136.59 122.78 45.22 286.37-17.48 297.15-90.48 4.62-31.26-17.79-70.55-50.1-86.57Z" class="cls-5fat5"/><path d="M565.41 1743.33c.98 3.66 2.47 7.87 4.76 12.32 5.51 10.7 13.01 17.58 18.13 21.48-3.58-5.03-18.61-27.31-14.41-57.57 3.23-23.27 16.04-38.3 21.08-43.66-2.41 3.8-9.74 16.39-7.77 33.26 1.41 12.09 6.92 20.56 9.82 24.43-.52-7.07-1.7-34.54 17.5-60.18 11.57-15.44 25.76-23.84 36.03-28.3-7.7 8.2-19.29 22.75-26.19 43.74-16.34 49.71 7.71 92.72 11.81 99.78 23.85 41.08 63.04 54.69 72.84 57.78-12-.59-32.43-3.22-54.37-14.83-14.58-7.71-25.13-16.9-32.13-24.1 5.79 11.08 15.24 26.24 30.28 40.78 74.2 71.73 223.53 69.21 305.23-4.94 20.21-18.35 33.53-38.57 42.42-55.9 4.65 11.99 6.56 24.42 4.88 35.79-10.79 73-174.37 135.7-297.16 90.48-10.94-4.03-117.81-45.1-139.08-136.59-3.15-13.54-3.76-25.32-3.68-33.79Z" class="cls-5fat2"/><path d="M755.61 1021.72c4.18 3.19 8.32 6.35 12.35 9.52a99.4 99.4 0 0 1-12.35-9.52Z" class="cls-5fat1"/><g transform="translate(480, 550)scale(3.6)" fill="none"><svg width="300" height="300"><style>.background-color{ fill: #fff; }.corners-square-color-0-0{ fill: #33e695; }.corners-dot-color-0-0{ fill: #97f25a; }.corners-square-color-1-0{ fill: #33e695; }.corners-dot-color-1-0{ fill: #97f25a; }.corners-square-color-0-1{ fill: #33e695; }.corners-dot-color-0-1{ fill: #97f25a; }</style><defs><clipPath id="clip-path-dot-color"><rect x="5" y="85" width="10" height="10" transform="rotate(0,10,90)"/><rect x="5" y="95" width="10" height="10" transform="rotate(0,10,100)"/><rect x="5" y="105" width="10" height="10" transform="rotate(0,10,110)"/><rect x="5" y="115" width="10" height="10" transform="rotate(0,10,120)"/><rect x="5" y="135" width="10" height="10" transform="rotate(0,10,140)"/><rect x="5" y="155" width="10" height="10" transform="rotate(0,10,160)"/><rect x="5" y="165" width="10" height="10" transform="rotate(0,10,170)"/><rect x="5" y="185" width="10" height="10" transform="rotate(0,10,190)"/><rect x="5" y="195" width="10" height="10" transform="rotate(0,10,200)"/><rect x="15" y="85" width="10" height="10" transform="rotate(0,20,90)"/><rect x="15" y="95" width="10" height="10" transform="rotate(0,20,100)"/><rect x="15" y="145" width="10" height="10" transform="rotate(0,20,150)"/><rect x="25" y="95" width="10" height="10" transform="rotate(0,30,100)"/><rect x="25" y="105" width="10" height="10" transform="rotate(0,30,110)"/><rect x="25" y="115" width="10" height="10" transform="rotate(0,30,120)"/><rect x="25" y="145" width="10" height="10" transform="rotate(0,30,150)"/><rect x="25" y="205" width="10" height="10" transform="rotate(0,30,210)"/><rect x="35" y="95" width="10" height="10" transform="rotate(0,40,100)"/><rect x="35" y="105" width="10" height="10" transform="rotate(0,40,110)"/><rect x="35" y="125" width="10" height="10" transform="rotate(0,40,130)"/><rect x="35" y="135" width="10" height="10" transform="rotate(0,40,140)"/><rect x="35" y="145" width="10" height="10" transform="rotate(0,40,150)"/><rect x="35" y="165" width="10" height="10" transform="rotate(0,40,170)"/><rect x="35" y="175" width="10" height="10" transform="rotate(0,40,180)"/><rect x="35" y="205" width="10" height="10" transform="rotate(0,40,210)"/><rect x="45" y="95" width="10" height="10" transform="rotate(0,50,100)"/><rect x="45" y="135" width="10" height="10" transform="rotate(0,50,140)"/><rect x="45" y="145" width="10" height="10" transform="rotate(0,50,150)"/><rect x="45" y="175" width="10" height="10" transform="rotate(0,50,180)"/><rect x="45" y="185" width="10" height="10" transform="rotate(0,50,190)"/><rect x="45" y="195" width="10" height="10" transform="rotate(0,50,200)"/><rect x="45" y="205" width="10" height="10" transform="rotate(0,50,210)"/><rect x="55" y="105" width="10" height="10" transform="rotate(0,60,110)"/><rect x="55" y="115" width="10" height="10" transform="rotate(0,60,120)"/><rect x="55" y="175" width="10" height="10" transform="rotate(0,60,180)"/><rect x="65" y="85" width="10" height="10" transform="rotate(0,70,90)"/><rect x="65" y="105" width="10" height="10" transform="rotate(0,70,110)"/><rect x="65" y="125" width="10" height="10" transform="rotate(0,70,130)"/><rect x="65" y="145" width="10" height="10" transform="rotate(0,70,150)"/><rect x="65" y="165" width="10" height="10" transform="rotate(0,70,170)"/><rect x="65" y="185" width="10" height="10" transform="rotate(0,70,190)"/><rect x="65" y="205" width="10" height="10" transform="rotate(0,70,210)"/><rect x="75" y="105" width="10" height="10" transform="rotate(0,80,110)"/><rect x="75" y="125" width="10" height="10" transform="rotate(0,80,130)"/><rect x="75" y="135" width="10" height="10" transform="rotate(0,80,140)"/><rect x="75" y="155" width="10" height="10" transform="rotate(0,80,160)"/><rect x="75" y="195" width="10" height="10" transform="rotate(0,80,200)"/><rect x="75" y="205" width="10" height="10" transform="rotate(0,80,210)"/><rect x="85" y="15" width="10" height="10" transform="rotate(0,90,20)"/><rect x="85" y="65" width="10" height="10" transform="rotate(0,90,70)"/><rect x="85" y="75" width="10" height="10" transform="rotate(0,90,80)"/><rect x="85" y="85" width="10" height="10" transform="rotate(0,90,90)"/><rect x="85" y="105" width="10" height="10" transform="rotate(0,90,110)"/><rect x="85" y="125" width="10" height="10" transform="rotate(0,90,130)"/><rect x="85" y="135" width="10" height="10" transform="rotate(0,90,140)"/><rect x="85" y="155" width="10" height="10" transform="rotate(0,90,160)"/><rect x="85" y="185" width="10" height="10" transform="rotate(0,90,190)"/><rect x="85" y="195" width="10" height="10" transform="rotate(0,90,200)"/><rect x="85" y="215" width="10" height="10" transform="rotate(0,90,220)"/><rect x="85" y="275" width="10" height="10" transform="rotate(0,90,280)"/><rect x="85" y="285" width="10" height="10" transform="rotate(0,90,290)"/><rect x="95" y="15" width="10" height="10" transform="rotate(0,100,20)"/><rect x="95" y="35" width="10" height="10" transform="rotate(0,100,40)"/><rect x="95" y="55" width="10" height="10" transform="rotate(0,100,60)"/><rect x="95" y="95" width="10" height="10" transform="rotate(0,100,100)"/><rect x="95" y="115" width="10" height="10" transform="rotate(0,100,120)"/><rect x="95" y="135" width="10" height="10" transform="rotate(0,100,140)"/><rect x="95" y="145" width="10" height="10" transform="rotate(0,100,150)"/><rect x="95" y="165" width="10" height="10" transform="rotate(0,100,170)"/><rect x="95" y="185" width="10" height="10" transform="rotate(0,100,190)"/><rect x="95" y="235" width="10" height="10" transform="rotate(0,100,240)"/><rect x="95" y="245" width="10" height="10" transform="rotate(0,100,250)"/><rect x="95" y="255" width="10" height="10" transform="rotate(0,100,260)"/><rect x="95" y="275" width="10" height="10" transform="rotate(0,100,280)"/><rect x="105" y="55" width="10" height="10" transform="rotate(0,110,60)"/><rect x="105" y="65" width="10" height="10" transform="rotate(0,110,70)"/><rect x="105" y="105" width="10" height="10" transform="rotate(0,110,110)"/><rect x="105" y="115" width="10" height="10" transform="rotate(0,110,120)"/><rect x="105" y="125" width="10" height="10" transform="rotate(0,110,130)"/><rect x="105" y="135" width="10" height="10" transform="rotate(0,110,140)"/><rect x="105" y="145" width="10" height="10" transform="rotate(0,110,150)"/><rect x="105" y="165" width="10" height="10" transform="rotate(0,110,170)"/><rect x="105" y="205" width="10" height="10" transform="rotate(0,110,210)"/><rect x="105" y="215" width="10" height="10" transform="rotate(0,110,220)"/><rect x="105" y="225" width="10" height="10" transform="rotate(0,110,230)"/><rect x="105" y="235" width="10" height="10" transform="rotate(0,110,240)"/><rect x="105" y="245" width="10" height="10" transform="rotate(0,110,250)"/><rect x="105" y="255" width="10" height="10" transform="rotate(0,110,260)"/><rect x="105" y="265" width="10" height="10" transform="rotate(0,110,270)"/><rect x="115" y="35" width="10" height="10" transform="rotate(0,120,40)"/><rect x="115" y="55" width="10" height="10" transform="rotate(0,120,60)"/><rect x="115" y="75" width="10" height="10" transform="rotate(0,120,80)"/><rect x="115" y="85" width="10" height="10" transform="rotate(0,120,90)"/><rect x="115" y="95" width="10" height="10" transform="rotate(0,120,100)"/><rect x="115" y="105" width="10" height="10" transform="rotate(0,120,110)"/><rect x="115" y="195" width="10" height="10" transform="rotate(0,120,200)"/><rect x="115" y="225" width="10" height="10" transform="rotate(0,120,230)"/><rect x="115" y="255" width="10" height="10" transform="rotate(0,120,260)"/><rect x="125" y="15" width="10" height="10" transform="rotate(0,130,20)"/><rect x="125" y="25" width="10" height="10" transform="rotate(0,130,30)"/><rect x="125" y="55" width="10" height="10" transform="rotate(0,130,60)"/><rect x="125" y="65" width="10" height="10" transform="rotate(0,130,70)"/><rect x="125" y="75" width="10" height="10" transform="rotate(0,130,80)"/><rect x="125" y="85" width="10" height="10" transform="rotate(0,130,90)"/><rect x="125" y="105" width="10" height="10" transform="rotate(0,130,110)"/><rect x="125" y="185" width="10" height="10" transform="rotate(0,130,190)"/><rect x="125" y="195" width="10" height="10" transform="rotate(0,130,200)"/><rect x="125" y="205" width="10" height="10" transform="rotate(0,130,210)"/><rect x="125" y="215" width="10" height="10" transform="rotate(0,130,220)"/><rect x="125" y="225" width="10" height="10" transform="rotate(0,130,230)"/><rect x="125" y="255" width="10" height="10" transform="rotate(0,130,260)"/><rect x="125" y="275" width="10" height="10" transform="rotate(0,130,280)"/><rect x="135" y="25" width="10" height="10" transform="rotate(0,140,30)"/><rect x="135" y="35" width="10" height="10" transform="rotate(0,140,40)"/><rect x="135" y="55" width="10" height="10" transform="rotate(0,140,60)"/><rect x="135" y="75" width="10" height="10" transform="rotate(0,140,80)"/><rect x="135" y="85" width="10" height="10" transform="rotate(0,140,90)"/><rect x="135" y="105" width="10" height="10" transform="rotate(0,140,110)"/><rect x="135" y="185" width="10" height="10" transform="rotate(0,140,190)"/><rect x="135" y="195" width="10" height="10" transform="rotate(0,140,200)"/><rect x="135" y="225" width="10" height="10" transform="rotate(0,140,230)"/><rect x="135" y="245" width="10" height="10" transform="rotate(0,140,250)"/><rect x="135" y="255" width="10" height="10" transform="rotate(0,140,260)"/><rect x="135" y="285" width="10" height="10" transform="rotate(0,140,290)"/><rect x="145" y="15" width="10" height="10" transform="rotate(0,150,20)"/><rect x="145" y="35" width="10" height="10" transform="rotate(0,150,40)"/><rect x="145" y="45" width="10" height="10" transform="rotate(0,150,50)"/><rect x="145" y="65" width="10" height="10" transform="rotate(0,150,70)"/><rect x="145" y="85" width="10" height="10" transform="rotate(0,150,90)"/><rect x="145" y="205" width="10" height="10" transform="rotate(0,150,210)"/><rect x="145" y="225" width="10" height="10" transform="rotate(0,150,230)"/><rect x="145" y="235" width="10" height="10" transform="rotate(0,150,240)"/><rect x="155" y="5" width="10" height="10" transform="rotate(0,160,10)"/><rect x="155" y="75" width="10" height="10" transform="rotate(0,160,80)"/><rect x="155" y="105" width="10" height="10" transform="rotate(0,160,110)"/><rect x="155" y="185" width="10" height="10" transform="rotate(0,160,190)"/><rect x="155" y="205" width="10" height="10" transform="rotate(0,160,210)"/><rect x="155" y="245" width="10" height="10" transform="rotate(0,160,250)"/><rect x="155" y="255" width="10" height="10" transform="rotate(0,160,260)"/><rect x="155" y="265" width="10" height="10" transform="rotate(0,160,270)"/><rect x="155" y="275" width="10" height="10" transform="rotate(0,160,280)"/><rect x="165" y="5" width="10" height="10" transform="rotate(0,170,10)"/><rect x="165" y="35" width="10" height="10" transform="rotate(0,170,40)"/><rect x="165" y="55" width="10" height="10" transform="rotate(0,170,60)"/><rect x="165" y="65" width="10" height="10" transform="rotate(0,170,70)"/><rect x="165" y="75" width="10" height="10" transform="rotate(0,170,80)"/><rect x="165" y="105" width="10" height="10" transform="rotate(0,170,110)"/><rect x="165" y="205" width="10" height="10" transform="rotate(0,170,210)"/><rect x="165" y="215" width="10" height="10" transform="rotate(0,170,220)"/><rect x="165" y="235" width="10" height="10" transform="rotate(0,170,240)"/><rect x="165" y="255" width="10" height="10" transform="rotate(0,170,260)"/><rect x="165" y="265" width="10" height="10" transform="rotate(0,170,270)"/><rect x="165" y="275" width="10" height="10" transform="rotate(0,170,280)"/><rect x="175" y="5" width="10" height="10" transform="rotate(0,180,10)"/><rect x="175" y="25" width="10" height="10" transform="rotate(0,180,30)"/><rect x="175" y="35" width="10" height="10" transform="rotate(0,180,40)"/><rect x="175" y="55" width="10" height="10" transform="rotate(0,180,60)"/><rect x="175" y="85" width="10" height="10" transform="rotate(0,180,90)"/><rect x="175" y="95" width="10" height="10" transform="rotate(0,180,100)"/><rect x="175" y="105" width="10" height="10" transform="rotate(0,180,110)"/><rect x="175" y="185" width="10" height="10" transform="rotate(0,180,190)"/><rect x="175" y="195" width="10" height="10" transform="rotate(0,180,200)"/><rect x="175" y="205" width="10" height="10" transform="rotate(0,180,210)"/><rect x="175" y="215" width="10" height="10" transform="rotate(0,180,220)"/><rect x="175" y="225" width="10" height="10" transform="rotate(0,180,230)"/><rect x="175" y="235" width="10" height="10" transform="rotate(0,180,240)"/><rect x="175" y="245" width="10" height="10" transform="rotate(0,180,250)"/><rect x="175" y="255" width="10" height="10" transform="rotate(0,180,260)"/><rect x="175" y="265" width="10" height="10" transform="rotate(0,180,270)"/><rect x="175" y="285" width="10" height="10" transform="rotate(0,180,290)"/><rect x="185" y="5" width="10" height="10" transform="rotate(0,190,10)"/><rect x="185" y="15" width="10" height="10" transform="rotate(0,190,20)"/><rect x="185" y="25" width="10" height="10" transform="rotate(0,190,30)"/><rect x="185" y="55" width="10" height="10" transform="rotate(0,190,60)"/><rect x="185" y="65" width="10" height="10" transform="rotate(0,190,70)"/><rect x="185" y="105" width="10" height="10" transform="rotate(0,190,110)"/><rect x="185" y="135" width="10" height="10" transform="rotate(0,190,140)"/><rect x="185" y="155" width="10" height="10" transform="rotate(0,190,160)"/><rect x="185" y="175" width="10" height="10" transform="rotate(0,190,180)"/><rect x="185" y="195" width="10" height="10" transform="rotate(0,190,200)"/><rect x="185" y="205" width="10" height="10" transform="rotate(0,190,210)"/><rect x="185" y="265" width="10" height="10" transform="rotate(0,190,270)"/><rect x="185" y="285" width="10" height="10" transform="rotate(0,190,290)"/><rect x="195" y="5" width="10" height="10" transform="rotate(0,200,10)"/><rect x="195" y="25" width="10" height="10" transform="rotate(0,200,30)"/><rect x="195" y="35" width="10" height="10" transform="rotate(0,200,40)"/><rect x="195" y="55" width="10" height="10" transform="rotate(0,200,60)"/><rect x="195" y="75" width="10" height="10" transform="rotate(0,200,80)"/><rect x="195" y="85" width="10" height="10" transform="rotate(0,200,90)"/><rect x="195" y="95" width="10" height="10" transform="rotate(0,200,100)"/><rect x="195" y="105" width="10" height="10" transform="rotate(0,200,110)"/><rect x="195" y="115" width="10" height="10" transform="rotate(0,200,120)"/><rect x="195" y="125" width="10" height="10" transform="rotate(0,200,130)"/><rect x="195" y="215" width="10" height="10" transform="rotate(0,200,220)"/><rect x="195" y="225" width="10" height="10" transform="rotate(0,200,230)"/><rect x="195" y="245" width="10" height="10" transform="rotate(0,200,250)"/><rect x="205" y="5" width="10" height="10" transform="rotate(0,210,10)"/><rect x="205" y="25" width="10" height="10" transform="rotate(0,210,30)"/><rect x="205" y="55" width="10" height="10" transform="rotate(0,210,60)"/><rect x="205" y="65" width="10" height="10" transform="rotate(0,210,70)"/><rect x="205" y="75" width="10" height="10" transform="rotate(0,210,80)"/><rect x="205" y="95" width="10" height="10" transform="rotate(0,210,100)"/><rect x="205" y="125" width="10" height="10" transform="rotate(0,210,130)"/><rect x="205" y="135" width="10" height="10" transform="rotate(0,210,140)"/><rect x="205" y="155" width="10" height="10" transform="rotate(0,210,160)"/><rect x="205" y="175" width="10" height="10" transform="rotate(0,210,180)"/><rect x="205" y="195" width="10" height="10" transform="rotate(0,210,200)"/><rect x="205" y="205" width="10" height="10" transform="rotate(0,210,210)"/><rect x="205" y="215" width="10" height="10" transform="rotate(0,210,220)"/><rect x="205" y="225" width="10" height="10" transform="rotate(0,210,230)"/><rect x="205" y="235" width="10" height="10" transform="rotate(0,210,240)"/><rect x="205" y="245" width="10" height="10" transform="rotate(0,210,250)"/><rect x="205" y="265" width="10" height="10" transform="rotate(0,210,270)"/><rect x="205" y="285" width="10" height="10" transform="rotate(0,210,290)"/><rect x="215" y="85" width="10" height="10" transform="rotate(0,220,90)"/><rect x="215" y="95" width="10" height="10" transform="rotate(0,220,100)"/><rect x="215" y="125" width="10" height="10" transform="rotate(0,220,130)"/><rect x="215" y="155" width="10" height="10" transform="rotate(0,220,160)"/><rect x="215" y="165" width="10" height="10" transform="rotate(0,220,170)"/><rect x="215" y="195" width="10" height="10" transform="rotate(0,220,200)"/><rect x="215" y="205" width="10" height="10" transform="rotate(0,220,210)"/><rect x="215" y="245" width="10" height="10" transform="rotate(0,220,250)"/><rect x="215" y="255" width="10" height="10" transform="rotate(0,220,260)"/><rect x="215" y="265" width="10" height="10" transform="rotate(0,220,270)"/><rect x="225" y="85" width="10" height="10" transform="rotate(0,230,90)"/><rect x="225" y="95" width="10" height="10" transform="rotate(0,230,100)"/><rect x="225" y="125" width="10" height="10" transform="rotate(0,230,130)"/><rect x="225" y="155" width="10" height="10" transform="rotate(0,230,160)"/><rect x="225" y="185" width="10" height="10" transform="rotate(0,230,190)"/><rect x="225" y="195" width="10" height="10" transform="rotate(0,230,200)"/><rect x="225" y="205" width="10" height="10" transform="rotate(0,230,210)"/><rect x="225" y="225" width="10" height="10" transform="rotate(0,230,230)"/><rect x="225" y="245" width="10" height="10" transform="rotate(0,230,250)"/><rect x="235" y="95" width="10" height="10" transform="rotate(0,240,100)"/><rect x="235" y="155" width="10" height="10" transform="rotate(0,240,160)"/><rect x="235" y="195" width="10" height="10" transform="rotate(0,240,200)"/><rect x="235" y="205" width="10" height="10" transform="rotate(0,240,210)"/><rect x="235" y="245" width="10" height="10" transform="rotate(0,240,250)"/><rect x="235" y="255" width="10" height="10" transform="rotate(0,240,260)"/><rect x="235" y="285" width="10" height="10" transform="rotate(0,240,290)"/><rect x="245" y="95" width="10" height="10" transform="rotate(0,250,100)"/><rect x="245" y="105" width="10" height="10" transform="rotate(0,250,110)"/><rect x="245" y="125" width="10" height="10" transform="rotate(0,250,130)"/><rect x="245" y="145" width="10" height="10" transform="rotate(0,250,150)"/><rect x="245" y="155" width="10" height="10" transform="rotate(0,250,160)"/><rect x="245" y="165" width="10" height="10" transform="rotate(0,250,170)"/><rect x="245" y="175" width="10" height="10" transform="rotate(0,250,180)"/><rect x="245" y="185" width="10" height="10" transform="rotate(0,250,190)"/><rect x="245" y="195" width="10" height="10" transform="rotate(0,250,200)"/><rect x="245" y="205" width="10" height="10" transform="rotate(0,250,210)"/><rect x="245" y="215" width="10" height="10" transform="rotate(0,250,220)"/><rect x="245" y="225" width="10" height="10" transform="rotate(0,250,230)"/><rect x="245" y="235" width="10" height="10" transform="rotate(0,250,240)"/><rect x="245" y="245" width="10" height="10" transform="rotate(0,250,250)"/><rect x="255" y="95" width="10" height="10" transform="rotate(0,260,100)"/><rect x="255" y="105" width="10" height="10" transform="rotate(0,260,110)"/><rect x="255" y="115" width="10" height="10" transform="rotate(0,260,120)"/><rect x="255" y="125" width="10" height="10" transform="rotate(0,260,130)"/><rect x="255" y="165" width="10" height="10" transform="rotate(0,260,170)"/><rect x="255" y="195" width="10" height="10" transform="rotate(0,260,200)"/><rect x="255" y="205" width="10" height="10" transform="rotate(0,260,210)"/><rect x="255" y="235" width="10" height="10" transform="rotate(0,260,240)"/><rect x="255" y="255" width="10" height="10" transform="rotate(0,260,260)"/><rect x="255" y="265" width="10" height="10" transform="rotate(0,260,270)"/><rect x="255" y="275" width="10" height="10" transform="rotate(0,260,280)"/><rect x="265" y="95" width="10" height="10" transform="rotate(0,270,100)"/><rect x="265" y="105" width="10" height="10" transform="rotate(0,270,110)"/><rect x="265" y="115" width="10" height="10" transform="rotate(0,270,120)"/><rect x="265" y="125" width="10" height="10" transform="rotate(0,270,130)"/><rect x="265" y="185" width="10" height="10" transform="rotate(0,270,190)"/><rect x="265" y="195" width="10" height="10" transform="rotate(0,270,200)"/><rect x="265" y="205" width="10" height="10" transform="rotate(0,270,210)"/><rect x="265" y="215" width="10" height="10" transform="rotate(0,270,220)"/><rect x="265" y="225" width="10" height="10" transform="rotate(0,270,230)"/><rect x="265" y="235" width="10" height="10" transform="rotate(0,270,240)"/><rect x="265" y="245" width="10" height="10" transform="rotate(0,270,250)"/><rect x="265" y="255" width="10" height="10" transform="rotate(0,270,260)"/><rect x="265" y="265" width="10" height="10" transform="rotate(0,270,270)"/><rect x="265" y="275" width="10" height="10" transform="rotate(0,270,280)"/><rect x="275" y="85" width="10" height="10" transform="rotate(0,280,90)"/><rect x="275" y="95" width="10" height="10" transform="rotate(0,280,100)"/><rect x="275" y="125" width="10" height="10" transform="rotate(0,280,130)"/><rect x="275" y="135" width="10" height="10" transform="rotate(0,280,140)"/><rect x="275" y="145" width="10" height="10" transform="rotate(0,280,150)"/><rect x="275" y="155" width="10" height="10" transform="rotate(0,280,160)"/><rect x="275" y="205" width="10" height="10" transform="rotate(0,280,210)"/><rect x="275" y="215" width="10" height="10" transform="rotate(0,280,220)"/><rect x="275" y="225" width="10" height="10" transform="rotate(0,280,230)"/><rect x="275" y="245" width="10" height="10" transform="rotate(0,280,250)"/><rect x="275" y="265" width="10" height="10" transform="rotate(0,280,270)"/><rect x="275" y="285" width="10" height="10" transform="rotate(0,280,290)"/><rect x="285" y="95" width="10" height="10" transform="rotate(0,290,100)"/><rect x="285" y="125" width="10" height="10" transform="rotate(0,290,130)"/><rect x="285" y="135" width="10" height="10" transform="rotate(0,290,140)"/><rect x="285" y="165" width="10" height="10" transform="rotate(0,290,170)"/><rect x="285" y="175" width="10" height="10" transform="rotate(0,290,180)"/><rect x="285" y="195" width="10" height="10" transform="rotate(0,290,200)"/><rect x="285" y="225" width="10" height="10" transform="rotate(0,290,230)"/><rect x="285" y="245" width="10" height="10" transform="rotate(0,290,250)"/><rect x="285" y="255" width="10" height="10" transform="rotate(0,290,260)"/><rect x="285" y="265" width="10" height="10" transform="rotate(0,290,270)"/></clipPath><radialGradient id="dot-color" gradientUnits="userSpaceOnUse" fx="150" fy="150" cx="150" cy="150" r="145"><stop offset="0%" stop-color="#28f0ed"/><stop offset="100%" stop-color="#08dd2c"/></radialGradient></defs><rect x="5" y="5" height="290" width="290" clip-path="url('#clip-path-dot-color')" fill="url('#dot-color')"/><g class="green-dots"/><g class="corners-square-color-0-0"><path clip-rule="evenodd" d="M 5 30v 20a 25 25, 0, 0, 0, 25 25h 45v -45a 25 25, 0, 0, 0, -25 -25h -20H 5zM 30 15h 20a 15 15, 0, 0, 1, 15 15v 35h -35a 15 15, 0, 0, 1, -15 -15v -35z" transform="rotate(0,40,40)"/></g><g class="corners-dot-color-0-0"><path clip-rule="evenodd" d="M 38.84615384615385,26.546153846153846c0.6692307692307691,-1.0153846153846153,2.215384615384615,-1.0153846153846153,2.884615384615384,0l4.038461538461538,6.069230769230768c0.23076923076923075,0.3461538461538461,0.6,0.6,1.0153846153846153,0.7153846153846153l7.223076923076922,1.823076923076923c1.2,0.3,1.6846153846153844,1.7076923076923076,0.8999999999999999,2.6538461538461533l-4.73076923076923,5.584615384615384c-0.2769230769230769,0.3230769230769231,-0.41538461538461535,0.7384615384615384,-0.3923076923076923,1.1307692307692307l0.4384615384615384,7.199999999999999c0.06923076923076922,1.2,-1.1769230769230767,2.0769230769230766,-2.3307692307692305,1.6384615384615382l-6.9692307692307685,-2.6076923076923073c-0.3923076923076923,-0.16153846153846155,-0.8538461538461538,-0.16153846153846155,-1.2461538461538462,0l-6.9692307692307685,2.6076923076923073c-1.1538461538461537,0.4384615384615384,-2.4,-0.4384615384615384,-2.3307692307692305,-1.6384615384615382l0.4384615384615384,-7.199999999999999c0.023076923076923075,-0.41538461538461535,-0.11538461538461538,-0.8307692307692307,-0.3923076923076923,-1.1307692307692307l-4.73076923076923,-5.584615384615384c-0.7846153846153846,-0.923076923076923,-0.3230769230769231,-2.3307692307692305,0.8999999999999999,-2.6538461538461533l7.223076923076922,-1.823076923076923c0.41538461538461535,-0.11538461538461538,0.7846153846153846,-0.3461538461538461,1.0153846153846153,-0.7153846153846153l4.038461538461538,-6.069230769230768z" transform="rotate(0,40,40)"/></g><g class="corners-square-color-1-0"><path clip-rule="evenodd" d="M 225 30v 20a 25 25, 0, 0, 0, 25 25h 45v -45a 25 25, 0, 0, 0, -25 -25h -20H 225zM 250 15h 20a 15 15, 0, 0, 1, 15 15v 35h -35a 15 15, 0, 0, 1, -15 -15v -35z" transform="rotate(90,260,40)"/></g><g class="corners-dot-color-1-0"><path clip-rule="evenodd" d="M 258.84615384615387,26.546153846153846c0.6692307692307691,-1.0153846153846153,2.215384615384615,-1.0153846153846153,2.884615384615384,0l4.038461538461538,6.069230769230768c0.23076923076923075,0.3461538461538461,0.6,0.6,1.0153846153846153,0.7153846153846153l7.223076923076922,1.823076923076923c1.2,0.3,1.6846153846153844,1.7076923076923076,0.8999999999999999,2.6538461538461533l-4.73076923076923,5.584615384615384c-0.2769230769230769,0.3230769230769231,-0.41538461538461535,0.7384615384615384,-0.3923076923076923,1.1307692307692307l0.4384615384615384,7.199999999999999c0.06923076923076922,1.2,-1.1769230769230767,2.0769230769230766,-2.3307692307692305,1.6384615384615382l-6.9692307692307685,-2.6076923076923073c-0.3923076923076923,-0.16153846153846155,-0.8538461538461538,-0.16153846153846155,-1.2461538461538462,0l-6.9692307692307685,2.6076923076923073c-1.1538461538461537,0.4384615384615384,-2.4,-0.4384615384615384,-2.3307692307692305,-1.6384615384615382l0.4384615384615384,-7.199999999999999c0.023076923076923075,-0.41538461538461535,-0.11538461538461538,-0.8307692307692307,-0.3923076923076923,-1.1307692307692307l-4.73076923076923,-5.584615384615384c-0.7846153846153846,-0.923076923076923,-0.3230769230769231,-2.3307692307692305,0.8999999999999999,-2.6538461538461533l7.223076923076922,-1.823076923076923c0.41538461538461535,-0.11538461538461538,0.7846153846153846,-0.3461538461538461,1.0153846153846153,-0.7153846153846153l4.038461538461538,-6.069230769230768z" transform="rotate(0,260,40)"/></g><g class="corners-square-color-0-1"><path clip-rule="evenodd" d="M 5 250v 20a 25 25, 0, 0, 0, 25 25h 45v -45a 25 25, 0, 0, 0, -25 -25h -20H 5zM 30 235h 20a 15 15, 0, 0, 1, 15 15v 35h -35a 15 15, 0, 0, 1, -15 -15v -35z" transform="rotate(-90,40,260)"/></g><g class="corners-dot-color-0-1"><path clip-rule="evenodd" d="M 38.84615384615385,246.54615384615386c0.6692307692307691,-1.0153846153846153,2.215384615384615,-1.0153846153846153,2.884615384615384,0l4.038461538461538,6.069230769230768c0.23076923076923075,0.3461538461538461,0.6,0.6,1.0153846153846153,0.7153846153846153l7.223076923076922,1.823076923076923c1.2,0.3,1.6846153846153844,1.7076923076923076,0.8999999999999999,2.6538461538461533l-4.73076923076923,5.584615384615384c-0.2769230769230769,0.3230769230769231,-0.41538461538461535,0.7384615384615384,-0.3923076923076923,1.1307692307692307l0.4384615384615384,7.199999999999999c0.06923076923076922,1.2,-1.1769230769230767,2.0769230769230766,-2.3307692307692305,1.6384615384615382l-6.9692307692307685,-2.6076923076923073c-0.3923076923076923,-0.16153846153846155,-0.8538461538461538,-0.16153846153846155,-1.2461538461538462,0l-6.9692307692307685,2.6076923076923073c-1.1538461538461537,0.4384615384615384,-2.4,-0.4384615384615384,-2.3307692307692305,-1.6384615384615382l0.4384615384615384,-7.199999999999999c0.023076923076923075,-0.41538461538461535,-0.11538461538461538,-0.8307692307692307,-0.3923076923076923,-1.1307692307692307l-4.73076923076923,-5.584615384615384c-0.7846153846153846,-0.923076923076923,-0.3230769230769231,-2.3307692307692305,0.8999999999999999,-2.6538461538461533l7.223076923076922,-1.823076923076923c0.41538461538461535,-0.11538461538461538,0.7846153846153846,-0.3461538461538461,1.0153846153846153,-0.7153846153846153l4.038461538461538,-6.069230769230768z" transform="rotate(0,40,260)"/></g><svg id="githubLogotype" xmlns="http://www.w3.org/2000/svg" viewBox="0 0 51 50" x="117" y="117.5" width="66px" height="65px"><circle cx="25.5" cy="25" r="25" fill="black"/><path d="M25.5 4C13.8975 4 4.5 13.3975 4.5 25C4.5 34.2925 10.5112 42.1413 18.8587 44.9238C19.9087 45.1075 20.3025 44.4775 20.3025 43.9263C20.3025 43.4275 20.2763 41.7738 20.2763 40.015C15 40.9863 13.635 38.7287 13.215 37.5475C12.9788 36.9437 11.955 35.08 11.0625 34.5812C10.3275 34.1875 9.2775 33.2162 11.0363 33.19C12.69 33.1637 13.8713 34.7125 14.265 35.3425C16.155 38.5187 19.1738 37.6263 20.3813 37.075C20.565 35.71 21.1162 34.7913 21.72 34.2662C17.0475 33.7412 12.165 31.93 12.165 23.8975C12.165 21.6138 12.9788 19.7237 14.3175 18.2537C14.1075 17.7287 13.3725 15.5763 14.5275 12.6888C14.5275 12.6888 16.2863 12.1375 20.3025 14.8413C21.9825 14.3688 23.7675 14.1325 25.5525 14.1325C27.3375 14.1325 29.1225 14.3688 30.8025 14.8413C34.8188 12.1112 36.5775 12.6888 36.5775 12.6888C37.7325 15.5763 36.9975 17.7287 36.7875 18.2537C38.1263 19.7237 38.94 21.5875 38.94 23.8975C38.94 31.9562 34.0312 33.7412 29.3588 34.2662C30.12 34.9225 30.7763 36.1825 30.7763 38.1512C30.7763 40.96 30.75 43.2175 30.75 43.9263C30.75 44.4775 31.1438 45.1338 32.1938 44.9238C36.3626 43.5164 39.9852 40.8371 42.5516 37.263C45.1179 33.6889 46.4989 29.4 46.5 25C46.5 13.3975 37.1025 4 25.5 4Z" fill="white"/></svg></svg></g></g></svg></svg>